<?xml version="1.0" standalone="no"?>
<!DOCTYPE svg PUBLIC "-//W3C//DTD SVG 20010904//EN"
 "http://www.w3.org/TR/2001/REC-SVG-20010904/DTD/svg10.dtd">
<svg version="1.0" xmlns="http://www.w3.org/2000/svg"
 width="409.000000pt" height="409.000000pt" viewBox="0 0 409.000000 409.000000"
 preserveAspectRatio="xMidYMid meet">
<metadata>
Created by potrace 1.11, written by Peter Selinger 2001-2013
</metadata>
<g transform="translate(0.000000,409.000000) scale(0.100000,-0.100000)"
fill="#000000" stroke="none">
<path d="M1095 2743 c-147 -24 -207 -53 -290 -137 -99 -98 -143 -221 -132
-362 6 -69 33 -156 62 -197 13 -19 12 -24 -10 -47 l-25 -26 52 -13 c29 -7 72
-26 95 -42 23 -16 65 -40 94 -54 51 -23 52 -24 27 -34 -34 -13 -38 -27 -38
-147 l0 -104 33 0 33 0 0 101 c-1 106 3 125 25 117 11 -4 14 -31 13 -112 l-1
-106 33 0 32 0 0 108 c0 59 -4 114 -8 122 -7 13 -3 16 17 15 l26 0 -2 -107
c-2 -105 -2 -107 24 -124 32 -21 110 -15 129 11 7 9 13 34 14 54 3 36 2 37
-30 36 -30 -1 -33 -4 -36 -38 -2 -23 -8 -37 -17 -37 -18 0 -21 14 -20 100 0
63 3 75 18 78 16 3 23 -22 18 -65 -1 -7 11 -11 30 -9 27 2 32 7 35 32 2 17 -4
40 -16 55 l-19 27 74 36 c79 39 167 123 199 190 9 20 21 36 27 36 5 0 9 6 8
13 -6 50 6 43 36 -21 43 -91 126 -177 210 -217 33 -16 62 -30 64 -32 3 -2 4
-62 4 -133 l-1 -130 67 0 c37 0 70 3 74 6 14 15 -8 34 -39 34 -33 0 -36 3 -36
35 0 41 3 45 36 45 25 0 35 5 39 20 4 17 0 20 -34 20 -21 0 -40 5 -40 10 -5
42 -3 45 31 48 19 2 37 8 41 13 3 5 16 12 29 14 18 3 21 2 12 -7 -8 -8 -12
-48 -12 -109 0 -115 6 -124 87 -124 73 0 81 12 81 123 0 91 -9 122 -33 122
-26 0 -16 17 18 31 102 41 199 138 242 246 l24 58 20 -49 c12 -26 21 -50 21
-52 0 -8 53 -77 80 -104 38 -40 110 -85 165 -105 28 -11 52 -22 55 -26 4 -6 5
-170 1 -201 -2 -13 -29 -9 -33 5 -2 6 -3 56 -3 110 l2 97 -34 0 -33 0 0 -110
c0 -100 2 -111 23 -130 18 -18 31 -21 71 -17 67 6 74 19 74 131 -1 89 4 116
20 116 4 0 6 -56 4 -125 l-4 -125 35 0 35 0 -2 46 c-2 32 2 48 12 51 20 8 28
-10 26 -57 -1 -39 -1 -40 31 -40 l33 0 1 110 c1 97 -1 112 -19 130 -11 11 -15
20 -9 20 6 0 41 14 78 32 45 21 88 53 134 100 37 37 65 68 62 68 -3 0 4 18 15
40 29 57 47 146 45 220 -5 175 -106 327 -268 404 -65 31 -100 38 -192 38 -177
1 -334 -98 -412 -260 l-35 -74 -23 56 c-42 102 -116 180 -220 231 -114 56
-227 65 -345 25 -138 -45 -237 -140 -291 -278 -10 -26 -18 -39 -19 -29 0 20
-43 108 -74 152 -11 16 -19 40 -18 52 3 19 -1 23 -24 23 -15 0 -48 13 -74 30
-48 31 -117 59 -160 66 -48 7 -105 10 -125 7z m1058 -1023 c-1 -102 -1 -100
-18 -100 -17 0 -16 -1 -19 90 -2 78 2 92 22 88 13 -2 16 -18 15 -78z m850 52
c0 -12 -1 -29 -2 -37 -1 -18 -28 -20 -33 -3 -2 6 -2 24 0 40 5 35 37 36 35 0z"/>
<path d="M411 1710 l1 -130 67 0 c37 0 70 3 74 6 14 15 -8 34 -39 34 -34 0
-36 2 -36 40 0 38 2 40 36 40 25 0 35 5 39 20 5 18 0 20 -37 20 -40 0 -42 1
-41 30 0 28 3 30 36 30 40 0 50 6 42 26 -4 10 -24 14 -74 14 l-68 0 0 -130z"/>
<path d="M598 1826 c-7 -6 -15 -25 -16 -42 -3 -31 13 -52 76 -94 28 -18 37
-59 16 -67 -20 -7 -27 1 -28 34 -1 24 -5 27 -33 28 -31 1 -33 -2 -33 -32 0
-49 33 -74 93 -72 80 4 104 65 45 114 -63 50 -76 65 -74 83 4 24 33 27 40 4 4
-11 5 -26 4 -33 -3 -14 50 -21 58 -7 3 5 3 24 0 43 -5 23 -14 36 -34 44 -33
14 -94 12 -114 -3z"/>
<path d="M770 1710 l0 -130 70 0 c40 0 70 4 70 10 0 6 0 13 0 18 1 4 -16 9
-37 12 -39 5 -39 5 -34 65 1 10 12 15 36 15 28 0 35 4 35 19 0 16 -8 20 -37
23 -33 3 -38 6 -38 28 0 21 6 26 38 30 21 3 38 8 37 13 0 4 0 12 0 17 0 6 -30
10 -70 10 l-70 0 0 -130z"/>
<path d="M1312 1710 l-1 -130 32 0 33 0 0 130 0 130 -32 0 -31 0 -1 -130z"/>
<path d="M1440 1834 c-33 -14 -40 -37 -40 -146 l0 -108 33 0 c33 0 34 0 33 46
-1 31 4 48 13 52 19 7 30 -16 26 -60 -4 -37 -3 -38 30 -38 l33 0 1 114 c0 88
-3 117 -15 126 -16 14 -91 23 -114 14z m61 -54 c1 -11 2 -28 3 -37 0 -10 -7
-19 -16 -21 -17 -3 -20 4 -20 43 0 30 2 35 17 35 8 0 16 -9 16 -20z"/>
<path d="M1687 1834 c-12 -12 6 -34 29 -34 24 0 24 -1 24 -110 l0 -110 30 0
c17 0 31 6 31 13 1 6 2 55 3 107 l1 95 28 3 c19 2 27 9 27 23 0 17 -8 19 -83
19 -46 0 -86 -3 -90 -6z"/>
<path d="M2241 1733 c1 -134 8 -148 76 -152 64 -3 84 13 86 69 2 43 1 45 -28
45 -17 0 -31 -6 -31 -12 -1 -7 -2 -25 -3 -39 -1 -18 -6 -25 -18 -22 -12 2 -16
13 -16 38 2 83 0 80 43 80 33 0 40 3 40 20 0 17 -7 20 -43 20 -42 0 -43 1 -41
30 2 28 0 30 -32 30 l-34 0 1 -107z"/>
<path d="M2431 1710 l-2 -130 33 0 33 0 0 130 0 130 -31 0 -31 0 -2 -130z"/>
<path d="M2522 1710 l0 -130 32 0 32 0 0 58 c0 49 3 57 19 57 17 0 19 -7 17
-57 l-1 -58 33 0 32 0 1 130 0 130 -34 0 c-33 0 -33 0 -31 -45 1 -49 -4 -60
-25 -52 -11 4 -14 18 -11 51 l5 46 -35 0 -34 0 0 -130z"/>
<path d="M3112 1824 c-20 -14 -22 -23 -22 -114 0 -95 1 -100 25 -116 28 -18
108 -15 127 4 6 6 12 30 14 55 4 47 5 46 -59 38 -4 -1 -7 -7 -6 -13 4 -33 -2
-58 -15 -58 -19 0 -22 14 -20 95 3 90 1 85 19 85 9 0 15 -10 16 -22 1 -13 2
-29 3 -37 0 -9 14 -15 34 -16 32 -1 33 -1 29 39 -3 26 -12 46 -27 58 -27 22
-88 23 -118 2z"/>
<path d="M3320 1833 c-33 -12 -40 -36 -40 -145 l0 -108 34 0 34 0 -1 48 c-2
41 1 47 18 47 17 0 20 -6 19 -47 -1 -48 -1 -48 31 -48 l33 0 -2 117 c-1 115
-2 118 -26 130 -25 13 -73 16 -100 6z m61 -40 c0 -5 2 -17 4 -28 2 -11 0 -26
-4 -34 -12 -19 -40 -6 -36 16 2 10 4 26 4 36 1 16 30 25 32 10z"/>
<path d="M3490 1820 c-18 -18 -20 -33 -20 -130 l0 -110 33 0 34 0 0 83 c2 133
2 137 17 137 20 0 22 -13 20 -122 l-1 -98 32 0 33 0 -1 116 c-1 132 -5 139
-81 143 -34 1 -50 -3 -66 -19z"/>
<path d="M1610 1674 c0 -27 4 -34 19 -34 11 0 22 6 24 13 4 10 6 10 6 0 1 -7
11 -13 24 -13 18 0 19 2 7 10 -12 8 -13 11 -1 19 11 7 11 9 0 14 -12 5 -12 7
0 15 11 8 2 10 -32 10 -47 0 -47 0 -47 -34z m27 -11 c-3 -10 -5 -4 -5 12 0 17
2 24 5 18 2 -7 2 -21 0 -30z"/>
<path d="M1030 1471 c0 -58 4 -81 13 -81 8 0 12 22 12 77 0 52 -4 78 -12 80
-10 4 -13 -16 -13 -76z"/>
<path d="M1085 1539 c-4 -6 -4 -13 -1 -16 3 -3 -2 -12 -12 -19 -15 -12 -15
-13 -1 -14 12 0 15 -11 15 -47 -1 -26 4 -48 10 -50 8 -3 12 12 11 41 0 25 5
52 13 60 8 11 9 16 1 16 -6 0 -11 9 -11 20 0 21 -15 27 -25 9z"/>
<path d="M2049 1543 c-1 -5 -1 -12 0 -17 1 -5 -4 -13 -11 -18 -9 -6 -10 -10
-2 -15 7 -5 12 -21 12 -38 0 -55 2 -65 12 -65 6 0 10 22 10 48 0 26 5 53 12
60 9 9 9 12 0 12 -7 0 -12 9 -12 20 0 18 -19 29 -21 13z"/>
<path d="M2590 1526 c0 -22 -3 -24 -33 -19 -24 3 -36 0 -48 -14 -46 -52 -15
-103 59 -100 l42 1 0 78 c0 45 -4 78 -10 78 -5 0 -10 -11 -10 -24z m-10 -56
c22 -40 -26 -80 -58 -48 -25 25 -6 68 30 68 9 0 22 -9 28 -20z"/>
<path d="M3113 1523 c-7 -15 -9 -29 -5 -32 5 -3 8 -26 8 -50 0 -26 5 -46 12
-49 8 -2 12 12 12 47 0 33 4 51 12 51 9 0 9 3 0 12 -7 7 -12 20 -12 30 0 26
-13 22 -27 -9z"/>
<path d="M787 1492 c-36 -40 -9 -102 45 -102 14 0 31 7 38 15 18 21 6 29 -19
13 -27 -17 -56 0 -56 32 0 32 29 49 55 32 31 -19 45 -14 25 8 -23 25 -67 26
-88 2z"/>
<path d="M909 1488 c0 -13 -2 -31 -4 -40 -6 -32 23 -58 64 -56 l38 1 -1 59
c-1 35 -5 58 -12 58 -6 0 -11 -10 -11 -22 1 -70 -2 -79 -25 -76 -20 3 -23 10
-26 51 -3 47 -21 67 -23 25z"/>
<path d="M1138 1493 c-2 -34 4 -78 14 -90 5 -6 26 -11 46 -11 l37 0 0 57 c0
63 -18 77 -21 17 -3 -44 -15 -61 -38 -53 -15 6 -21 36 -17 80 1 9 -3 17 -8 17
-6 0 -12 -8 -13 -17z"/>
<path d="M1260 1449 c0 -42 4 -59 13 -59 9 0 13 13 12 41 -1 23 5 47 12 55 18
18 16 22 -12 22 -24 0 -25 -3 -25 -59z"/>
<path d="M1336 1488 c-37 -53 -7 -98 64 -96 l45 0 -1 56 -1 56 -46 3 c-38 3
-48 -1 -61 -19z m62 -4 c39 -11 23 -74 -19 -74 -29 0 -44 27 -31 55 12 27 15
28 50 19z"/>
<path d="M1545 1496 c-24 -18 -24 -74 0 -92 10 -7 37 -13 60 -12 l42 2 1 57 0
57 -43 0 c-23 1 -50 -5 -60 -12z m74 -28 c10 -28 5 -44 -16 -52 -41 -16 -76
30 -46 59 22 22 52 18 62 -7z"/>
<path d="M1681 1453 c12 -32 23 -60 26 -62 7 -9 22 15 42 67 16 39 18 52 7 52
-7 0 -19 -19 -26 -42 l-13 -43 -13 30 c-7 17 -13 36 -14 43 0 6 -7 12 -15 12
-12 0 -11 -9 6 -57z"/>
<path d="M1797 1498 c-27 -22 -31 -60 -7 -86 26 -28 61 -28 86 0 19 21 19 21
-1 14 -41 -16 -50 -17 -70 -2 -19 14 -17 15 32 16 28 0 54 4 57 9 3 5 -4 20
-15 35 -22 28 -55 34 -82 14z m57 -14 c28 -11 17 -24 -19 -24 -34 0 -47 13
-22 23 18 8 23 8 41 1z"/>
<path d="M1914 1449 c0 -40 4 -59 12 -59 7 0 11 12 10 29 -3 39 10 71 28 71
21 0 34 -29 31 -67 -2 -22 1 -33 10 -33 19 0 14 98 -5 110 -8 5 -30 8 -50 8
l-36 0 0 -59z"/>
<path d="M2100 1461 c0 -57 13 -71 62 -69 l35 1 2 59 c1 41 -2 59 -10 56 -7
-2 -13 -20 -13 -39 -2 -40 -12 -59 -31 -59 -16 0 -25 22 -25 66 0 19 -4 34
-10 34 -5 0 -10 -22 -10 -49z"/>
<path d="M2225 1453 c0 -35 5 -58 13 -61 8 -2 11 9 10 37 -1 26 5 48 16 59 16
18 15 19 -12 20 -27 1 -28 0 -27 -55z"/>
<path d="M2300 1490 c-45 -45 -8 -103 63 -98 l42 3 0 55 0 54 -43 3 c-31 2
-47 -2 -62 -17z m74 -21 c11 -17 12 -25 3 -40 -19 -31 -65 -20 -71 17 -7 43
42 60 68 23z"/>
<path d="M2647 1492 c-35 -38 -9 -102 40 -102 26 0 77 39 51 40 -9 0 -20 -4
-23 -10 -9 -15 -41 -12 -55 5 -11 13 -6 15 39 15 57 0 66 15 31 50 -25 25 -62
26 -83 2z m73 -17 c11 -13 7 -15 -30 -15 -37 0 -41 2 -30 15 7 8 20 15 30 15
10 0 23 -7 30 -15z"/>
<path d="M2768 1496 c-9 -29 -1 -140 10 -144 7 -2 12 6 12 20 0 21 4 24 34 20
26 -3 37 1 50 19 23 33 20 66 -7 84 -26 17 -94 17 -99 1z m87 -20 c17 -12 18
-18 7 -40 -12 -28 -40 -34 -60 -14 -23 23 -7 68 23 68 6 0 20 -6 30 -14z"/>
<path d="M2921 1491 c-14 -14 -18 -28 -15 -48 10 -58 71 -69 107 -20 l21 27
-21 28 c-25 34 -65 40 -92 13z m63 -7 c21 -8 21 -60 0 -68 -41 -16 -77 29 -47
59 16 17 24 18 47 9z"/>
<path d="M3041 1448 c1 -70 22 -77 26 -7 1 24 7 45 12 47 20 7 11 20 -13 20
-24 0 -25 -3 -25 -60z"/>
<path d="M3187 1498 c-25 -20 -28 -63 -6 -87 23 -24 56 -27 83 -6 26 20 15 29
-17 14 -27 -12 -57 -7 -57 11 0 5 20 10 43 10 52 0 60 6 45 34 -20 38 -59 48
-91 24z m57 -14 c28 -11 17 -24 -19 -24 -33 0 -43 8 -28 23 8 9 27 9 47 1z"/>
<path d="M1472 1408 c6 -18 28 -21 28 -4 0 9 -7 16 -16 16 -9 0 -14 -5 -12
-12z"/>
<path d="M2437 1414 c-8 -8 1 -24 14 -24 5 0 9 7 9 15 0 15 -12 20 -23 9z"/>
</g>
</svg>
